# xmcd
#
# Track frame offsets:
# 150
# 17245
# 42877
# 62165
# 83187
# 104667
# 123607
# 145687
#
# Disc length: 2203 seconds
#
#
# Revision: 0
# Processed by: cddbd v1.5.1PL0 Copyright (c) Steve Scherf et al.
# Submitted via: FreeRIP 2.91 
#
DISCID=6e089908
DTITLE=Nancy Gosselin - Nancy Gosselin
DYEAR=1900
DGENRE=Country
TTITLE0=Depuis toujours
TTITLE1=Derrière le mur de tes bras
TTITLE2=J'ai fait
TTITLE3=Excusez-le
TTITLE4=Si tu m'aimes vraiment
TTITLE5=Bohèmes fatigués
TTITLE6=Rien n'est plus solide
TTITLE7=Nous détruire
EXTD=
EXTT0=
EXTT1=
EXTT2=
EXTT3=
EXTT4=
EXTT5=
EXTT6=
EXTT7=
PLAYORDER=
